<svg xmlns="http://www.w3.org/2000/svg" width="580.009" height="42.698" viewBox="0 0 580.009 42.698" fill="#CBBCD3">
  <path class="path" id="Path_5" data-name="Path 5" d="M3.485-.63a3.519,3.519,0,0,1,.073-.619q.073-.388.178-.8t.22-.787q.115-.378.178-.609l8.5-27.9a1.337,1.337,0,0,1,.231-.252.857.857,0,0,1,.283-.178,1.13,1.13,0,0,1,.43-.073h.357a1.726,1.726,0,0,1,.777.157,1.353,1.353,0,0,1,.5.42,1.6,1.6,0,0,1,.262.609,3.59,3.59,0,0,1,.073.745,4.978,4.978,0,0,1-.052.7q-.052.367-.115.714t-.136.64l-.115.462L10.771-12.493l1.995-.189q3.338-.735,6.813-1.522t6.813-1.522a1.644,1.644,0,0,0,.672-.777,9.8,9.8,0,0,0,.577-1.533q.283-.945.619-2.215t.819-2.824l.441-1.449q.273-1.05.493-2.152a15.081,15.081,0,0,1,.535-2.005,4.7,4.7,0,0,1,.8-1.48,1.542,1.542,0,0,1,1.239-.577,2.071,2.071,0,0,1,1.659.682,2.529,2.529,0,0,1,.588,1.711,8.364,8.364,0,0,1-.493,2.184q-.493,1.533-1.228,3.737-.273.819-.588,1.68T31.946-19.1q-.262.787-.43,1.449a4.55,4.55,0,0,0-.168,1.06,2.7,2.7,0,0,0,.1.745,2.855,2.855,0,0,1,.1.787,2.441,2.441,0,0,1-.5,1.575A7.371,7.371,0,0,1,29.667-12.2q-.042.168-.115.525t-.178.735L29.1-9.868q-.294,1.155-.493,2.31T28.25-5.27Q28.093-4.136,27.914-3T27.463-.756A1.909,1.909,0,0,1,27.1-.01a2.707,2.707,0,0,1-.609.556A3.03,3.03,0,0,1,25.762.9a2.261,2.261,0,0,1-.714.126A1.351,1.351,0,0,1,24.229.8a1.737,1.737,0,0,1-.493-.546A2.1,2.1,0,0,1,23.495-.4a3.165,3.165,0,0,1-.063-.567,7.492,7.492,0,0,1,.073-.829q.073-.577.2-1.354T24-4.829q.168-.9.336-1.827.4-2.142.924-4.682h-.147a6.543,6.543,0,0,0-1.176.115q-.63.115-1.512.325-.4.126-1.186.336t-1.8.483l-2.173.588-2.32.63L9.259-7.307a18.286,18.286,0,0,0-.745,1.774q-.346.955-.64,1.932T7.338-1.68Q7.1-.735,6.887.1a1.588,1.588,0,0,1-.262.5,3.132,3.132,0,0,1-.462.5,2.73,2.73,0,0,1-.546.378,1.168,1.168,0,0,1-.535.147,1.371,1.371,0,0,1-.766-.2A1.544,1.544,0,0,1,3.821.913,2.238,2.238,0,0,1,3.559.178,4.569,4.569,0,0,1,3.485-.63ZM35.4-3.842q.315-1.218.756-2.834T37.09-10.1q.493-1.806,1-3.7t.945-3.674a1.208,1.208,0,0,1,.147-.283,1.833,1.833,0,0,1,.357-.4,2.139,2.139,0,0,1,.588-.346,2.2,2.2,0,0,1,.84-.147,3.233,3.233,0,0,1,.693.073,2.164,2.164,0,0,1,.6.22,1.181,1.181,0,0,1,.42.388,1,1,0,0,1,.157.556v.136a.429.429,0,0,1-.021.136l-.588,2.226q-.987,3.737-2.005,7.5T38.234.126q-.042.126-.126.315a1.829,1.829,0,0,1-.231.378,1.285,1.285,0,0,1-.357.315.962.962,0,0,1-.5.126,2.047,2.047,0,0,1-.966-.22,2.451,2.451,0,0,1-.714-.556A2.337,2.337,0,0,1,34.9-.252a2.189,2.189,0,0,1-.147-.756V-1.2a.516.516,0,0,1,.042-.189Zm5.48-21.731a6.692,6.692,0,0,1,.378-1.071,2.8,2.8,0,0,1,.966-1.134,4.57,4.57,0,0,1,.819-.346,2.6,2.6,0,0,1,.693-.157.776.776,0,0,1,.43.147,2.537,2.537,0,0,1,.388.315,4.3,4.3,0,0,1,.4.462.746.746,0,0,1,.682.378,1.865,1.865,0,0,1,.157.8,2.713,2.713,0,0,1-.063.609q-.063.273-.1.441a1.907,1.907,0,0,1-.483.808,3.643,3.643,0,0,1-.819.63,4.5,4.5,0,0,1-.966.409,3.209,3.209,0,0,1-.882.147,1.383,1.383,0,0,1-.745-.168,2.933,2.933,0,0,1-.661-.714,1.358,1.358,0,0,1-.262-.493,1.8,1.8,0,0,1-.031-.3,2.375,2.375,0,0,1,.031-.409Q40.837-25.405,40.879-25.573ZM48.312.168a2.7,2.7,0,0,1-1.743-.861A2.523,2.523,0,0,1,45.9-2.457a3.415,3.415,0,0,1,1.165-2.551,3.666,3.666,0,0,1,2.572-1.1,2.259,2.259,0,0,1,1.869.84,3.674,3.674,0,0,1,.672,2.352,10.377,10.377,0,0,1-2.131,5.553q-2.131,3.16-3.664,3.16a1.3,1.3,0,0,1-.9-.367,1.105,1.105,0,0,1-.4-.829,1.707,1.707,0,0,1,.273-.987,4.975,4.975,0,0,1,1.155-1.029A4.929,4.929,0,0,0,48.312.168ZM85.643-18.771a2.387,2.387,0,0,1,.861-1.1,2.157,2.157,0,0,1,1.113-.283,2.5,2.5,0,0,1,1.029.189,1.773,1.773,0,0,1,.672.5,1.9,1.9,0,0,1,.357.735,3.714,3.714,0,0,1,.1.9v.283a2,2,0,0,1-.021.283q-.021.189-.1.682t-.2,1.165q-.115.672-.252,1.417t-.252,1.417q-.115.672-.21,1.176t-.136.693q-.042.21-.1.609t-.126.913q-.063.514-.1,1.1t-.042,1.176q0,.567.042,1.081a4.461,4.461,0,0,0,.157.9,1.891,1.891,0,0,0,.294.619.548.548,0,0,0,.451.231,1.071,1.071,0,0,0,.556-.3A10.085,10.085,0,0,0,90.5-5.1q.409-.42.808-.892t.651-.787q1.365-1.68,2.509-3.412t2.131-3.5A6.7,6.7,0,0,0,97.18-15.1a8.158,8.158,0,0,1,.472-1.291,2.476,2.476,0,0,1,.766-.945A2.467,2.467,0,0,1,99.9-17.7a1.954,1.954,0,0,1,1.071.357,1.839,1.839,0,0,1,.756,1.029q-.063.777-.189,1.6t-.231,1.669q-.1.85-.189,1.69t-.084,1.638a9.933,9.933,0,0,0,.252,2.3,3.965,3.965,0,0,0,.924,1.8,24.488,24.488,0,0,0,1.627-2.331q.808-1.3,1.585-2.708t1.48-2.845q.7-1.438,1.312-2.74a.768.768,0,0,0,.052-.2,1.809,1.809,0,0,0,.01-.2v-.189a2.862,2.862,0,0,1,.367-1.344,6.4,6.4,0,0,1,.871-1.26,5.449,5.449,0,0,1,1.039-.924,1.735,1.735,0,0,1,.892-.357,1.92,1.92,0,0,1,1.386.483,1.692,1.692,0,0,1,.5,1.281,2.691,2.691,0,0,1-.094.63,3.111,3.111,0,0,1-.3.756L105.862-5.1l-.525,1.029q-.336.651-.661,1.26a6.193,6.193,0,0,1-.714,1.071,3.254,3.254,0,0,1-.861.735,2.122,2.122,0,0,1-1.081.273,2.432,2.432,0,0,1-1.459-.462,4.592,4.592,0,0,1-1.1-1.134,7.058,7.058,0,0,1-.766-1.459,10.783,10.783,0,0,1-.451-1.417l-.777-3.359q-.063,0-.441.441t-.945,1.134q-.567.693-1.239,1.522t-1.312,1.6q-.64.766-1.176,1.386a8.938,8.938,0,0,1-.829.871q-.294.252-.619.5a6.581,6.581,0,0,1-.64.441,5.562,5.562,0,0,1-.6.315,1.22,1.22,0,0,1-.472.126,3.864,3.864,0,0,1-2.3-.651,4.635,4.635,0,0,1-1.449-1.7A7.915,7.915,0,0,1,84.7-4.924a16.13,16.13,0,0,1-.21-2.593q0-1.155.115-2.331t.273-2.32q.157-1.144.336-2.215t.3-1.995q.021-.168.031-.388t.01-.451v-.546q0-.336.01-.619A.893.893,0,0,1,85.643-18.771ZM114.219-8.1a2.445,2.445,0,0,1,.483-1.533,2.3,2.3,0,0,1,1.281-.84q.231-.462.714-1.249a19.579,19.579,0,0,1,1.2-1.711A21.311,21.311,0,0,1,119.52-15.3a13.928,13.928,0,0,1,2.016-1.7,10.966,10.966,0,0,1,2.373-1.249,7.528,7.528,0,0,1,2.7-.483,6.868,6.868,0,0,1,2.121.294,4.12,4.12,0,0,1,1.491.819,3.336,3.336,0,0,1,.882,1.249,4.12,4.12,0,0,1,.294,1.564,4.871,4.871,0,0,1-.189,1.365,4.727,4.727,0,0,1-1.092,2.058,8.482,8.482,0,0,1-1.879,1.543,12.085,12.085,0,0,1-2.352,1.1A24.786,24.786,0,0,1,123.342-8q-1.27.294-2.446.451t-2.037.241a4.449,4.449,0,0,0-.325.955,4.876,4.876,0,0,0-.136,1.123,2.17,2.17,0,0,0,.966,1.89,4.61,4.61,0,0,0,2.667.672,7.94,7.94,0,0,0,1.89-.22,10.9,10.9,0,0,0,1.711-.567,14.68,14.68,0,0,0,1.522-.756q.714-.409,1.3-.808a14.208,14.208,0,0,1,1.438-.85,2.735,2.735,0,0,1,1.207-.346q.525,0,.672.262a1.122,1.122,0,0,1,.147.556q0,.168-.01.325a2.079,2.079,0,0,1-.031.262,3.512,3.512,0,0,1-.42,1.092,3.454,3.454,0,0,1-.8.945,14.283,14.283,0,0,1-4.483,2.457,16.01,16.01,0,0,1-4.9.735q-.5,0-1.186-.063A9.029,9.029,0,0,1,118.67.1a7.3,7.3,0,0,1-1.449-.546,4.522,4.522,0,0,1-1.27-.945,4.552,4.552,0,0,1-.9-1.449,5.569,5.569,0,0,1-.346-2.079,10.169,10.169,0,0,1,.273-2.2.929.929,0,0,1-.514-.283A.953.953,0,0,1,114.219-8.1Zm13.144-5.816a.516.516,0,0,0,.042-.189V-14.3a.958.958,0,0,0-.42-.85,1.759,1.759,0,0,0-1.008-.283,3.776,3.776,0,0,0-1.816.483,8.345,8.345,0,0,0-1.68,1.207,10.776,10.776,0,0,0-1.4,1.554,10.646,10.646,0,0,0-.945,1.5,20.367,20.367,0,0,0,2.771-.409,11.064,11.064,0,0,0,2.194-.714,5.742,5.742,0,0,0,1.512-.966A2.473,2.473,0,0,0,127.362-13.92ZM142-27.232q.063-.714.168-1.554a8.448,8.448,0,0,1,.336-1.554,3.584,3.584,0,0,1,.619-1.186,1.233,1.233,0,0,1,1-.472,2.556,2.556,0,0,1,.745.126,3.512,3.512,0,0,1,.777.346,2.3,2.3,0,0,1,.619.535,1.084,1.084,0,0,1,.252.693,1.438,1.438,0,0,1-.063.388q-.063.22-.1.43L141.094-8.44q-.315,1.26-.525,2.4t-.315,1.879v.5a12.348,12.348,0,0,1-.084,1.375,6.078,6.078,0,0,1-.315,1.386,3.012,3.012,0,0,1-.64,1.071,1.4,1.4,0,0,1-1.06.43,1.946,1.946,0,0,1-.987-.241,2.187,2.187,0,0,1-.693-.619,2.64,2.64,0,0,1-.4-.808,2.884,2.884,0,0,1-.126-.808,6.74,6.74,0,0,1,.063-.829q.063-.493.157-1.029t.2-1.071q.1-.535.21-.934Zm4.661,19.022a20.2,20.2,0,0,1,1.186-3.38,22.436,22.436,0,0,1,1.9-3.412,19.876,19.876,0,0,1,2.53-3.044,13.037,13.037,0,0,1,3.1-2.278,4.689,4.689,0,0,1,1.2-.441,5.987,5.987,0,0,1,1.323-.147,6.266,6.266,0,0,1,1.291.126,2.842,2.842,0,0,1,1.029.42,2.147,2.147,0,0,1,.682.756,2.341,2.341,0,0,1,.252,1.134A3.694,3.694,0,0,1,161-17.458a2.967,2.967,0,0,1-.441.924,2.3,2.3,0,0,1-.735.661,2.038,2.038,0,0,1-1.029.252,2.12,2.12,0,0,1-.85-.168,6.761,6.761,0,0,1-.745-.378q-.189-.126-.357-.22a2.7,2.7,0,0,0-.4-.178,6.917,6.917,0,0,0-1.585,1,11.179,11.179,0,0,0-1.386,1.375,13.642,13.642,0,0,0-1.176,1.617q-.535.861-.966,1.722a16.5,16.5,0,0,0-.735,1.69q-.3.829-.493,1.522a11.235,11.235,0,0,0-.262,1.144,7.034,7.034,0,0,0-.115,1.249,4.174,4.174,0,0,0,.073.8,1.9,1.9,0,0,0,.262.672,1.335,1.335,0,0,0,.5.462,1.635,1.635,0,0,0,.777.168,5.759,5.759,0,0,0,1.459-.189,10.247,10.247,0,0,0,1.417-.483,11.68,11.68,0,0,0,1.354-.682q.661-.388,1.291-.787.4-.252.8-.525t.756-.483a6.828,6.828,0,0,1,.661-.346,1.34,1.34,0,0,1,.535-.136,1.157,1.157,0,0,1,.588.157.567.567,0,0,1,.273.535,1.753,1.753,0,0,1-.126.609,5.316,5.316,0,0,1-.8,1.47,7.387,7.387,0,0,1-1.123,1.165,9.068,9.068,0,0,1-1.323.913q-.7.4-1.4.735a12.055,12.055,0,0,1-2.635,1.039,9.192,9.192,0,0,1-2.236.346,4.525,4.525,0,0,1-.693-.063,2.919,2.919,0,0,1-.693-.189,5.274,5.274,0,0,1-2.478-1.974,5.418,5.418,0,0,1-.777-2.939,10.925,10.925,0,0,1,.115-1.543A15.129,15.129,0,0,1,146.658-8.209Zm18.414.168a15.3,15.3,0,0,1,.976-2.719,17.089,17.089,0,0,1,1.732-2.908,20.544,20.544,0,0,1,2.572-2.876,21.805,21.805,0,0,1,3.475-2.625,5.275,5.275,0,0,1,.966-.409,5.139,5.139,0,0,1,1.344-.262,2.863,2.863,0,0,1,2.2-.882,4.52,4.52,0,0,1,2.761.829,6.36,6.36,0,0,1,1.858,2.257q.231.462.43.9a6.407,6.407,0,0,1,.336.934,8.837,8.837,0,0,1,.22,1.06,8.8,8.8,0,0,1,.084,1.281,11.554,11.554,0,0,1-.525,3.38,15.5,15.5,0,0,1-1.491,3.359,18.755,18.755,0,0,1-2.341,3.139,19.382,19.382,0,0,1-3.055,2.7A9.106,9.106,0,0,1,174.11.388a9.83,9.83,0,0,1-3.076.451,8.222,8.222,0,0,1-2.8-.43,5.229,5.229,0,0,1-1.974-1.228,5.047,5.047,0,0,1-1.176-1.911,7.48,7.48,0,0,1-.388-2.478A11.717,11.717,0,0,1,165.071-8.042Zm3.485.273a6.976,6.976,0,0,0-.178.913,6.856,6.856,0,0,0-.052.829,4.5,4.5,0,0,0,.178,1.291,2.569,2.569,0,0,0,.577,1.029,2.728,2.728,0,0,0,1,.672,3.906,3.906,0,0,0,1.459.241,5.762,5.762,0,0,0,2.971-.808,9.964,9.964,0,0,0,2.446-2.026,13.053,13.053,0,0,0,1.8-2.614,11.981,11.981,0,0,0,1.018-2.572q.189-.735.325-1.386a5.865,5.865,0,0,0,.136-1.2,2.591,2.591,0,0,0-.2-1.018q-.2-.472-.514-1.06-.189-.357-.378-.745t-.336-.766a3.317,3.317,0,0,1-.357.514,1.682,1.682,0,0,1-.567.4,5.126,5.126,0,0,1-1.029.325,14.6,14.6,0,0,1-1.7.252,5.8,5.8,0,0,0-1.407.714,10.779,10.779,0,0,0-1.4,1.134,15.641,15.641,0,0,0-1.3,1.407,15.02,15.02,0,0,0-1.113,1.543,16.492,16.492,0,0,0-.861,1.543A6.7,6.7,0,0,0,168.557-7.769Zm19.064,6.383q.63-2.457,1.218-4.577t1.144-4.063q.556-1.942,1.081-3.769t1.008-3.716a6.985,6.985,0,0,0,.22-1.417,8.023,8.023,0,0,1,.2-1.417,1.057,1.057,0,0,1,.3-.451,2.494,2.494,0,0,1,.493-.346,2.764,2.764,0,0,1,.577-.231,2.173,2.173,0,0,1,.577-.084,2.981,2.981,0,0,1,.976.136,1.722,1.722,0,0,1,.63.367,1.231,1.231,0,0,1,.336.556,2.594,2.594,0,0,1,.094.724,4.714,4.714,0,0,1-.231,1.438q-.231.724-.567,1.585.987-.777,2.026-1.47a17.153,17.153,0,0,1,2.142-1.218,13.509,13.509,0,0,1,2.257-.84,9.056,9.056,0,0,1,2.394-.315,3.758,3.758,0,0,1,1.134.178,2.951,2.951,0,0,1,1.018.556,3.033,3.033,0,0,1,.756.987,3.713,3.713,0,0,1,.346,1.491q.9-.609,1.869-1.228a20.363,20.363,0,0,1,1.963-1.113,13.171,13.171,0,0,1,1.995-.8,6.635,6.635,0,0,1,1.942-.3,6.272,6.272,0,0,1,2.32.367,3.693,3.693,0,0,1,1.449.987,3.6,3.6,0,0,1,.756,1.438,6.679,6.679,0,0,1,.22,1.743,11.955,11.955,0,0,1-.189,2.079q-.189,1.071-.42,2.037-.609,2.436-1.365,4.609t-1.638,4.4q-.21.525-.441,1.113a6.765,6.765,0,0,1-.535,1.081,3.135,3.135,0,0,1-.714.819,1.49,1.49,0,0,1-.955.325,2.573,2.573,0,0,1-1.7-.42,1.535,1.535,0,0,1-.462-1.2q0-.21.021-.483a2.183,2.183,0,0,1,.1-.525,5.544,5.544,0,0,1,.378-.913q.294-.6.64-1.291t.682-1.4a9.991,9.991,0,0,0,.5-1.228q.273-.9.64-2.089t.7-2.394q.336-1.207.556-2.289a9.193,9.193,0,0,0,.22-1.753,3.2,3.2,0,0,0-.063-.63,1.469,1.469,0,0,0-.22-.546,1.174,1.174,0,0,0-.441-.378,1.569,1.569,0,0,0-.724-.147,4.079,4.079,0,0,0-1.5.357,12.389,12.389,0,0,0-1.806.934,16.657,16.657,0,0,0-1.816,1.3,13.1,13.1,0,0,0-1.512,1.438,6.474,6.474,0,0,1-.84.819,3.469,3.469,0,0,1-.8.483q-.042.084-.21.556t-.4,1.134q-.231.661-.483,1.428t-.472,1.428q-.22.661-.367,1.113a4.55,4.55,0,0,0-.147.493q-.147.588-.252,1.207t-.189,1.186q-.084.567-.157,1.207a4.684,4.684,0,0,1-.294,1.2,2.151,2.151,0,0,1-.672.913,2,2,0,0,1-1.27.357,1.45,1.45,0,0,1-.766-.21,2.181,2.181,0,0,1-.6-.535,2.658,2.658,0,0,1-.4-.735,2.867,2.867,0,0,1-.168-.829q.483-1.89.945-3.4t.924-2.9q.462-1.386.892-2.782t.85-3.076q.1-.4.168-.787a4.329,4.329,0,0,0,.063-.682,1.5,1.5,0,0,0-.21-.829.807.807,0,0,0-.735-.325,4.5,4.5,0,0,0-1.711.346,8.544,8.544,0,0,0-1.837,1.081,25.712,25.712,0,0,0-2.194,1.869q-1.207,1.134-2.782,2.708a8.053,8.053,0,0,0-.441,1.176q-.273.861-.556,1.827t-.514,1.8q-.231.829-.294,1.1a13.378,13.378,0,0,0-.315,1.48q-.084.6-.147,1.081-.042.252-.126.829a5.619,5.619,0,0,1-.3,1.165,3.307,3.307,0,0,1-.619,1.039,1.333,1.333,0,0,1-1.05.451,2.367,2.367,0,0,1-1.585-.525,1.661,1.661,0,0,1-.619-1.323,1.663,1.663,0,0,1,.021-.273A2.488,2.488,0,0,1,187.621-1.386ZM224.238-8.1a2.445,2.445,0,0,1,.483-1.533,2.3,2.3,0,0,1,1.281-.84q.231-.462.714-1.249a19.583,19.583,0,0,1,1.2-1.711A21.309,21.309,0,0,1,229.54-15.3a13.928,13.928,0,0,1,2.016-1.7,10.966,10.966,0,0,1,2.373-1.249,7.528,7.528,0,0,1,2.7-.483,6.868,6.868,0,0,1,2.121.294,4.12,4.12,0,0,1,1.491.819,3.336,3.336,0,0,1,.882,1.249,4.12,4.12,0,0,1,.294,1.564,4.871,4.871,0,0,1-.189,1.365,4.727,4.727,0,0,1-1.092,2.058,8.482,8.482,0,0,1-1.879,1.543,12.085,12.085,0,0,1-2.352,1.1A24.786,24.786,0,0,1,233.361-8q-1.27.294-2.446.451t-2.037.241a4.449,4.449,0,0,0-.325.955,4.876,4.876,0,0,0-.136,1.123,2.17,2.17,0,0,0,.966,1.89,4.61,4.61,0,0,0,2.667.672,7.939,7.939,0,0,0,1.89-.22,10.9,10.9,0,0,0,1.711-.567,14.68,14.68,0,0,0,1.522-.756q.714-.409,1.3-.808a14.208,14.208,0,0,1,1.438-.85,2.735,2.735,0,0,1,1.207-.346q.525,0,.672.262a1.122,1.122,0,0,1,.147.556q0,.168-.01.325a2.079,2.079,0,0,1-.031.262,3.512,3.512,0,0,1-.42,1.092,3.454,3.454,0,0,1-.8.945A14.283,14.283,0,0,1,236.2-.315a16.01,16.01,0,0,1-4.9.735q-.5,0-1.186-.063A9.03,9.03,0,0,1,228.689.1a7.3,7.3,0,0,1-1.449-.546,4.522,4.522,0,0,1-1.27-.945,4.552,4.552,0,0,1-.9-1.449,5.569,5.569,0,0,1-.346-2.079,10.17,10.17,0,0,1,.273-2.2.929.929,0,0,1-.514-.283A.953.953,0,0,1,224.238-8.1Zm13.144-5.816a.516.516,0,0,0,.042-.189V-14.3a.958.958,0,0,0-.42-.85A1.759,1.759,0,0,0,236-15.432a3.776,3.776,0,0,0-1.816.483,8.344,8.344,0,0,0-1.68,1.207,10.777,10.777,0,0,0-1.4,1.554,10.644,10.644,0,0,0-.945,1.5,20.367,20.367,0,0,0,2.771-.409,11.064,11.064,0,0,0,2.194-.714,5.743,5.743,0,0,0,1.512-.966A2.473,2.473,0,0,0,237.382-13.92Zm32.4,7.391a17.824,17.824,0,0,1,.4-3.664q.4-1.9.84-3.643A5.229,5.229,0,0,1,269.9-14a4.5,4.5,0,0,1-1.029-.4,2.461,2.461,0,0,1-.756-.619,1.322,1.322,0,0,1-.294-.85,1.836,1.836,0,0,1,.084-.483,2.735,2.735,0,0,1,.241-.577,1.6,1.6,0,0,1,.409-.483.89.89,0,0,1,.567-.2h2.813a.542.542,0,0,0,.546-.346,4.614,4.614,0,0,0,.231-.682q.273-1.218.514-2.11l.409-1.512q.168-.619.262-1.008a2.775,2.775,0,0,0,.094-.619q0-.273-.021-.525t-.021-.693v-.21a4.025,4.025,0,0,1,.031-.441,4.2,4.2,0,0,1,.2-.777,1.973,1.973,0,0,1,.462-.756,1.291,1.291,0,0,1,.987-.357,1.9,1.9,0,0,1,.966.231,1.938,1.938,0,0,1,.651.609,2.823,2.823,0,0,1,.378.861,3.813,3.813,0,0,1,.126.966,3.9,3.9,0,0,1-.1.945l-1.533,5.879q1.134-.189,2.016-.357l1.764-.336q.966-.189,1.669-.357t1.207-.283q.5-.115.85-.189a2.879,2.879,0,0,1,.577-.073,4.551,4.551,0,0,1,.682.052,2.145,2.145,0,0,1,.609.178,1.125,1.125,0,0,1,.43.357,1.012,1.012,0,0,1,.168.609,1.926,1.926,0,0,1-.2.892,2.321,2.321,0,0,1-.514.672,2.719,2.719,0,0,1-.714.462,3.94,3.94,0,0,1-.8.262q-.336.063-.871.189t-1.176.273q-.64.147-1.333.315t-1.344.336q-.966.252-1.648.42t-1.165.252q-.483.084-.787.126a3.775,3.775,0,0,1-.493.042q-.4,1.2-.693,2.352t-.493,2.152q-.2,1-.294,1.785a11,11,0,0,0-.094,1.228,5.4,5.4,0,0,0,.1,1.081,2.488,2.488,0,0,0,.357.892,1.774,1.774,0,0,0,.682.6,2.36,2.36,0,0,0,1.081.22,4.37,4.37,0,0,0,2.184-.609,10.408,10.408,0,0,0,2.047-1.543,19.275,19.275,0,0,0,1.848-2.047q.871-1.113,1.606-2.121a.756.756,0,0,1,.651-.378,1.364,1.364,0,0,1,.3.042,1.148,1.148,0,0,1,.346.147.957.957,0,0,1,.283.273.687.687,0,0,1,.115.4,1.119,1.119,0,0,1-.021.252,11.757,11.757,0,0,1-1.039,2.614q-.7,1.312-1.438,2.635a4.5,4.5,0,0,1-.661.9,10.345,10.345,0,0,1-.892.85q-.483.409-1.008.777t-.987.661a5.111,5.111,0,0,1-1.743.693,9.309,9.309,0,0,1-1.827.189,5.686,5.686,0,0,1-2.425-.493,5.182,5.182,0,0,1-1.785-1.344,5.9,5.9,0,0,1-1.1-1.984A7.655,7.655,0,0,1,269.779-6.53Zm19.9-1.512a15.3,15.3,0,0,1,.976-2.719,17.089,17.089,0,0,1,1.732-2.908,20.543,20.543,0,0,1,2.572-2.876,21.805,21.805,0,0,1,3.475-2.625,5.275,5.275,0,0,1,.966-.409,5.139,5.139,0,0,1,1.344-.262,2.863,2.863,0,0,1,2.2-.882,4.52,4.52,0,0,1,2.761.829,6.359,6.359,0,0,1,1.858,2.257q.231.462.43.9a6.407,6.407,0,0,1,.336.934,8.843,8.843,0,0,1,.22,1.06,8.8,8.8,0,0,1,.084,1.281,11.553,11.553,0,0,1-.525,3.38,15.5,15.5,0,0,1-1.491,3.359,18.755,18.755,0,0,1-2.341,3.139,19.383,19.383,0,0,1-3.055,2.7,9.105,9.105,0,0,1-2.509,1.27,9.83,9.83,0,0,1-3.076.451,8.222,8.222,0,0,1-2.8-.43,5.229,5.229,0,0,1-1.974-1.228,5.047,5.047,0,0,1-1.176-1.911,7.481,7.481,0,0,1-.388-2.478A11.717,11.717,0,0,1,289.683-8.042Zm3.485.273a6.979,6.979,0,0,0-.178.913,6.853,6.853,0,0,0-.052.829,4.5,4.5,0,0,0,.178,1.291,2.569,2.569,0,0,0,.577,1.029,2.728,2.728,0,0,0,1,.672,3.906,3.906,0,0,0,1.459.241,5.762,5.762,0,0,0,2.971-.808,9.963,9.963,0,0,0,2.446-2.026,13.053,13.053,0,0,0,1.8-2.614,11.981,11.981,0,0,0,1.018-2.572q.189-.735.325-1.386a5.866,5.866,0,0,0,.136-1.2,2.591,2.591,0,0,0-.2-1.018q-.2-.472-.514-1.06-.189-.357-.378-.745t-.336-.766a3.316,3.316,0,0,1-.357.514,1.682,1.682,0,0,1-.567.4,5.126,5.126,0,0,1-1.029.325,14.6,14.6,0,0,1-1.7.252,5.8,5.8,0,0,0-1.407.714,10.779,10.779,0,0,0-1.4,1.134,15.641,15.641,0,0,0-1.3,1.407,15.02,15.02,0,0,0-1.113,1.543,16.492,16.492,0,0,0-.861,1.543A6.7,6.7,0,0,0,293.168-7.769Zm40.061,6.383q.63-2.457,1.218-4.577t1.144-4.063q.556-1.942,1.081-3.769t1.008-3.716a6.985,6.985,0,0,0,.22-1.417,8.024,8.024,0,0,1,.2-1.417,1.057,1.057,0,0,1,.3-.451,2.494,2.494,0,0,1,.493-.346,2.764,2.764,0,0,1,.577-.231,2.173,2.173,0,0,1,.577-.084,2.981,2.981,0,0,1,.976.136,1.723,1.723,0,0,1,.63.367,1.231,1.231,0,0,1,.336.556,2.594,2.594,0,0,1,.094.724,4.714,4.714,0,0,1-.231,1.438q-.231.724-.567,1.585.987-.777,2.026-1.47a17.153,17.153,0,0,1,2.142-1.218,13.509,13.509,0,0,1,2.257-.84,9.056,9.056,0,0,1,2.394-.315,3.758,3.758,0,0,1,1.134.178,2.951,2.951,0,0,1,1.018.556,3.033,3.033,0,0,1,.756.987,3.712,3.712,0,0,1,.346,1.491q.9-.609,1.869-1.228a20.363,20.363,0,0,1,1.963-1.113,13.171,13.171,0,0,1,1.995-.8,6.636,6.636,0,0,1,1.942-.3,6.272,6.272,0,0,1,2.32.367,3.693,3.693,0,0,1,1.449.987,3.6,3.6,0,0,1,.756,1.438,6.679,6.679,0,0,1,.22,1.743,11.955,11.955,0,0,1-.189,2.079q-.189,1.071-.42,2.037-.609,2.436-1.365,4.609t-1.638,4.4q-.21.525-.441,1.113a6.762,6.762,0,0,1-.535,1.081,3.135,3.135,0,0,1-.714.819,1.49,1.49,0,0,1-.955.325,2.573,2.573,0,0,1-1.7-.42,1.535,1.535,0,0,1-.462-1.2q0-.21.021-.483a2.183,2.183,0,0,1,.1-.525,5.547,5.547,0,0,1,.378-.913q.294-.6.64-1.291t.682-1.4a9.987,9.987,0,0,0,.5-1.228q.273-.9.64-2.089t.7-2.394q.336-1.207.556-2.289a9.193,9.193,0,0,0,.22-1.753,3.2,3.2,0,0,0-.063-.63,1.469,1.469,0,0,0-.22-.546,1.174,1.174,0,0,0-.441-.378,1.569,1.569,0,0,0-.724-.147,4.08,4.08,0,0,0-1.5.357,12.389,12.389,0,0,0-1.806.934,16.656,16.656,0,0,0-1.816,1.3,13.1,13.1,0,0,0-1.512,1.438,6.473,6.473,0,0,1-.84.819,3.469,3.469,0,0,1-.8.483q-.042.084-.21.556t-.4,1.134q-.231.661-.483,1.428t-.472,1.428q-.22.661-.367,1.113a4.545,4.545,0,0,0-.147.493q-.147.588-.252,1.207t-.189,1.186q-.084.567-.157,1.207a4.684,4.684,0,0,1-.294,1.2,2.151,2.151,0,0,1-.672.913,2,2,0,0,1-1.27.357,1.45,1.45,0,0,1-.766-.21,2.181,2.181,0,0,1-.6-.535,2.658,2.658,0,0,1-.4-.735,2.867,2.867,0,0,1-.168-.829q.483-1.89.945-3.4t.924-2.9q.462-1.386.892-2.782t.85-3.076q.1-.4.168-.787a4.329,4.329,0,0,0,.063-.682,1.5,1.5,0,0,0-.21-.829.807.807,0,0,0-.735-.325,4.5,4.5,0,0,0-1.711.346,8.544,8.544,0,0,0-1.837,1.081,25.712,25.712,0,0,0-2.194,1.869q-1.207,1.134-2.782,2.708a8.056,8.056,0,0,0-.441,1.176q-.273.861-.556,1.827t-.514,1.8q-.231.829-.294,1.1a13.385,13.385,0,0,0-.315,1.48q-.084.6-.147,1.081-.042.252-.126.829a5.62,5.62,0,0,1-.3,1.165A3.307,3.307,0,0,1,336.4.556a1.333,1.333,0,0,1-1.05.451,2.367,2.367,0,0,1-1.585-.525,1.661,1.661,0,0,1-.619-1.323,1.662,1.662,0,0,1,.021-.273A2.5,2.5,0,0,1,333.229-1.386ZM370.014,9.7a1,1,0,0,1-.567-.168,1.523,1.523,0,0,1-.43-.441,2.476,2.476,0,0,1-.283-.6A2.053,2.053,0,0,1,369,6.645a1.446,1.446,0,0,1,.336-.346,1.825,1.825,0,0,1,.325-.189q.5-.126,1.176-.273a11.766,11.766,0,0,0,1.459-.43,15.015,15.015,0,0,0,1.68-.735,11.409,11.409,0,0,0,1.837-1.186q.945-.735,1.984-1.711A16.749,16.749,0,0,0,379.8-.514a20.284,20.284,0,0,0,1.806-3,19.123,19.123,0,0,0,1.386-3.874q-.4.441-.913,1t-1.1,1.134q-.588.577-1.218,1.113a15.127,15.127,0,0,1-1.26.966,7.021,7.021,0,0,1-1.228.682,2.9,2.9,0,0,1-1.123.252,4.3,4.3,0,0,1-2.394-.64A5.985,5.985,0,0,1,371.925-5a3.7,3.7,0,0,1-.357-1.092,7.389,7.389,0,0,1-.126-1.365q0-1.134.1-2.2t.315-2.226q.21-1.155.493-2.425t.64-2.8q.021-.4.063-.756a5.509,5.509,0,0,0,.052-.567,1.717,1.717,0,0,1,.031-.336,1.59,1.59,0,0,1,.241-.672,2.255,2.255,0,0,1,.483-.546,2.242,2.242,0,0,1,.609-.357,1.766,1.766,0,0,1,.64-.126A5.356,5.356,0,0,1,376-20.4a1.237,1.237,0,0,1,.693.325,2.388,2.388,0,0,1,.535.987,3.928,3.928,0,0,1,.178,1.092,3.244,3.244,0,0,1-.178.756,6.468,6.468,0,0,1-.514,1.176q-.5,1.89-.819,3.2t-.493,2.184q-.178.871-.252,1.386a6.021,6.021,0,0,0-.073.787,3.684,3.684,0,0,0,.378,1.806,1.085,1.085,0,0,0,.924.672,2.5,2.5,0,0,0,.724-.126,3.642,3.642,0,0,0,.871-.42,16.159,16.159,0,0,0,3.034-2.383,14.435,14.435,0,0,0,2.184-2.855,20.071,20.071,0,0,0,1.575-3.433,42.3,42.3,0,0,0,1.207-4.115.667.667,0,0,1,.2-.294,1.484,1.484,0,0,1,.378-.252,3.145,3.145,0,0,1,.472-.178,1.724,1.724,0,0,1,.483-.073,2.315,2.315,0,0,1,1.711.6,2.171,2.171,0,0,1,.6,1.606,6.313,6.313,0,0,1-.189,1.218q-.189.84-.441,1.774t-.514,1.785q-.262.85-.409,1.249l-1.008,2.918Q386.559-7.034,386-5.375t-1.186,3.1A22.153,22.153,0,0,1,383.4.441a16.607,16.607,0,0,1-1.9,2.5,23.39,23.39,0,0,1-2.646,2.446A38.209,38.209,0,0,1,375.2,7.937a17.641,17.641,0,0,1-2.551,1.27A7.108,7.108,0,0,1,370.014,9.7Zm41.992-1.932q.42-1.7.745-3.118t.6-2.667q.273-1.249.514-2.415t.483-2.352q.241-1.186.5-2.467t.577-2.792l1.008-4.871q.252-1.239.346-2.131a15.733,15.733,0,0,0,.094-1.648q0-.8.042-1.417a3.144,3.144,0,0,1,.231-1.05,1.381,1.381,0,0,1,.556-.651,1.982,1.982,0,0,1,1.018-.22,3.347,3.347,0,0,1,1.47.262,1.824,1.824,0,0,1,.777.682,2.275,2.275,0,0,1,.3.966q.053.546.052,1.134a8.7,8.7,0,0,1,1.669-.9,14.34,14.34,0,0,1,1.984-.661,19.138,19.138,0,0,1,2.079-.409,14.274,14.274,0,0,1,1.974-.147,6.135,6.135,0,0,1,2.646.535,5.533,5.533,0,0,1,1.89,1.428,6.021,6.021,0,0,1,1.134,2.058,7.744,7.744,0,0,1,.378,2.4,7.984,7.984,0,0,1-.462,2.729,9.789,9.789,0,0,1-1.26,2.394A12.9,12.9,0,0,1,431.5-5.49a18.323,18.323,0,0,1-2.289,1.753,26.814,26.814,0,0,1-2.541,1.459q-1.312.661-2.593,1.186a10.479,10.479,0,0,1-1.627.535,6.13,6.13,0,0,1-1.375.178,7.309,7.309,0,0,1-1.669-.189,5.643,5.643,0,0,1-1.564-.63q-.42,1.428-.7,2.729t-.451,2.31q-.1.63-.252,1.323t-.294,1.354q-.147.661-.283,1.249t-.22,1.008a.717.717,0,0,1-.3.42,2.337,2.337,0,0,1-.577.283,3.886,3.886,0,0,1-.682.168,4.181,4.181,0,0,1-.619.052q-1.554,0-1.554-1.218A2.671,2.671,0,0,1,412.006,7.769Zm6.509-12.178q.315.042.672.1t.693.126q.336.063.577.115a1.91,1.91,0,0,0,.325.052,4.327,4.327,0,0,0,.892-.1,8.641,8.641,0,0,0,.987-.273q.493-.168.955-.367t.819-.388q1.029-.525,2.194-1.27a13.757,13.757,0,0,0,2.163-1.711,8.948,8.948,0,0,0,1.648-2.163,5.446,5.446,0,0,0,.651-2.646,3.884,3.884,0,0,0-.147-1.092,2.61,2.61,0,0,0-.441-.882,2.049,2.049,0,0,0-.766-.6,2.636,2.636,0,0,0-1.123-.22,9.065,9.065,0,0,0-1.344.094,6.959,6.959,0,0,0-1.239.3,8.381,8.381,0,0,0-1.218.535,11.8,11.8,0,0,0-1.26.787,7.021,7.021,0,0,1-1.323.85,4.853,4.853,0,0,1-1.6.472Zm19.8-3.632a15.3,15.3,0,0,1,.976-2.719,17.089,17.089,0,0,1,1.732-2.908,20.543,20.543,0,0,1,2.572-2.876,21.805,21.805,0,0,1,3.475-2.625,5.275,5.275,0,0,1,.966-.409,5.139,5.139,0,0,1,1.344-.262,2.863,2.863,0,0,1,2.2-.882,4.52,4.52,0,0,1,2.761.829,6.359,6.359,0,0,1,1.858,2.257q.231.462.43.9a6.407,6.407,0,0,1,.336.934,8.843,8.843,0,0,1,.22,1.06,8.8,8.8,0,0,1,.084,1.281,11.553,11.553,0,0,1-.525,3.38,15.5,15.5,0,0,1-1.491,3.359,18.755,18.755,0,0,1-2.341,3.139,19.383,19.383,0,0,1-3.055,2.7,9.105,9.105,0,0,1-2.509,1.27,9.83,9.83,0,0,1-3.076.451,8.222,8.222,0,0,1-2.8-.43A5.229,5.229,0,0,1,439.5-.819a5.047,5.047,0,0,1-1.176-1.911,7.481,7.481,0,0,1-.388-2.478A11.717,11.717,0,0,1,438.314-8.042Zm3.485.273a6.979,6.979,0,0,0-.178.913,6.853,6.853,0,0,0-.052.829,4.5,4.5,0,0,0,.178,1.291,2.569,2.569,0,0,0,.577,1.029,2.728,2.728,0,0,0,1,.672,3.906,3.906,0,0,0,1.459.241,5.762,5.762,0,0,0,2.971-.808A9.963,9.963,0,0,0,450.2-5.627a13.053,13.053,0,0,0,1.8-2.614,11.981,11.981,0,0,0,1.018-2.572q.189-.735.325-1.386a5.866,5.866,0,0,0,.136-1.2,2.591,2.591,0,0,0-.2-1.018q-.2-.472-.514-1.06-.189-.357-.378-.745t-.336-.766a3.316,3.316,0,0,1-.357.514,1.682,1.682,0,0,1-.567.4,5.126,5.126,0,0,1-1.029.325,14.6,14.6,0,0,1-1.7.252,5.8,5.8,0,0,0-1.407.714,10.779,10.779,0,0,0-1.4,1.134,15.641,15.641,0,0,0-1.3,1.407,15.02,15.02,0,0,0-1.113,1.543,16.492,16.492,0,0,0-.861,1.543A6.7,6.7,0,0,0,441.8-7.769Zm19.463,5.606q.273-1.47.63-3.233t.735-3.569q.378-1.806.735-3.548t.609-3.191q-.021-.21-.021-.367v-.346a10.16,10.16,0,0,1,.084-1.3,9.085,9.085,0,0,1,.231-1.2A2.616,2.616,0,0,1,464.78-20a1.252,1.252,0,0,1,.913-.283,1.754,1.754,0,0,1,.976.241,1.7,1.7,0,0,1,.577.64,2.631,2.631,0,0,1,.273.913,8.719,8.719,0,0,1,.063,1.06q0,.294-.021.651t-.021.567q.588-.609,1.249-1.249a11.011,11.011,0,0,1,1.407-1.155,8.157,8.157,0,0,1,1.575-.85A4.571,4.571,0,0,1,473.5-19.8a3.924,3.924,0,0,1,.7.063,6.811,6.811,0,0,1,.7.168,6.982,6.982,0,0,1,.871.283,3.749,3.749,0,0,1,.871.493,4.583,4.583,0,0,1,1.165,1.312,3.088,3.088,0,0,1,.472,1.606,2.114,2.114,0,0,1-.126.682,2.546,2.546,0,0,1-.346.672,2.066,2.066,0,0,1-.514.5,1.134,1.134,0,0,1-.651.2,2.748,2.748,0,0,1-.871-.178,2.539,2.539,0,0,1-.85-.472,1.821,1.821,0,0,1-.3-.357q-.157-.231-.294-.462t-.252-.43a1.44,1.44,0,0,0-.178-.262,2.05,2.05,0,0,0-.231-.031q-.126-.01-.231-.01a4.078,4.078,0,0,0-2.037.546,9.4,9.4,0,0,0-1.806,1.333,15.186,15.186,0,0,0-1.543,1.68q-.7.892-1.228,1.606-.42,1.7-.934,3.622t-1.018,4.021v.525q0,.63-.042,1.281a3.591,3.591,0,0,1-.252,1.155,1.839,1.839,0,0,1-.661.535,2.158,2.158,0,0,1-1,.22A1.56,1.56,0,0,1,461.6-.073a2.168,2.168,0,0,1-.441-1.354A2.741,2.741,0,0,1,461.263-2.163ZM482.154-6.53a17.824,17.824,0,0,1,.4-3.664q.4-1.9.84-3.643A5.229,5.229,0,0,1,482.28-14a4.5,4.5,0,0,1-1.029-.4,2.461,2.461,0,0,1-.756-.619,1.322,1.322,0,0,1-.294-.85,1.836,1.836,0,0,1,.084-.483,2.735,2.735,0,0,1,.241-.577,1.6,1.6,0,0,1,.409-.483.89.89,0,0,1,.567-.2h2.813a.542.542,0,0,0,.546-.346,4.614,4.614,0,0,0,.231-.682q.273-1.218.514-2.11l.409-1.512q.168-.619.262-1.008a2.775,2.775,0,0,0,.094-.619q0-.273-.021-.525t-.021-.693v-.21a4.025,4.025,0,0,1,.031-.441,4.2,4.2,0,0,1,.2-.777,1.973,1.973,0,0,1,.462-.756,1.291,1.291,0,0,1,.987-.357,1.9,1.9,0,0,1,.966.231,1.938,1.938,0,0,1,.651.609,2.823,2.823,0,0,1,.378.861,3.813,3.813,0,0,1,.126.966,3.9,3.9,0,0,1-.1.945L488.5-18.162q1.134-.189,2.016-.357l1.764-.336q.966-.189,1.669-.357t1.207-.283q.5-.115.85-.189a2.879,2.879,0,0,1,.577-.073,4.551,4.551,0,0,1,.682.052,2.145,2.145,0,0,1,.609.178,1.125,1.125,0,0,1,.43.357,1.012,1.012,0,0,1,.168.609,1.926,1.926,0,0,1-.2.892,2.321,2.321,0,0,1-.514.672,2.719,2.719,0,0,1-.714.462,3.94,3.94,0,0,1-.8.262q-.336.063-.871.189t-1.176.273q-.64.147-1.333.315t-1.344.336q-.966.252-1.648.42t-1.165.252q-.483.084-.787.126a3.775,3.775,0,0,1-.493.042q-.4,1.2-.693,2.352t-.493,2.152q-.2,1-.294,1.785A11,11,0,0,0,485.85-6.8a5.4,5.4,0,0,0,.1,1.081,2.488,2.488,0,0,0,.357.892,1.774,1.774,0,0,0,.682.6,2.36,2.36,0,0,0,1.081.22,4.37,4.37,0,0,0,2.184-.609,10.408,10.408,0,0,0,2.047-1.543,19.275,19.275,0,0,0,1.848-2.047q.871-1.113,1.606-2.121a.756.756,0,0,1,.651-.378,1.364,1.364,0,0,1,.3.042,1.148,1.148,0,0,1,.346.147.957.957,0,0,1,.283.273.687.687,0,0,1,.115.4,1.119,1.119,0,0,1-.021.252A11.757,11.757,0,0,1,496.4-6.981q-.7,1.312-1.438,2.635a4.5,4.5,0,0,1-.661.9,10.345,10.345,0,0,1-.892.85q-.483.409-1.008.777t-.987.661a5.111,5.111,0,0,1-1.743.693,9.309,9.309,0,0,1-1.827.189,5.686,5.686,0,0,1-2.425-.493,5.182,5.182,0,0,1-1.785-1.344,5.9,5.9,0,0,1-1.1-1.984A7.655,7.655,0,0,1,482.154-6.53ZM505.8,1.932a2.107,2.107,0,0,1-.934-.2,2.036,2.036,0,0,1-.693-.546A2.628,2.628,0,0,1,503.728.4a2.789,2.789,0,0,1-.157-.945,4.138,4.138,0,0,1,.084-.787q.084-.43.252-1.039l.189-.819q.126-.546.252-1.239t.262-1.47q.136-.777.252-1.512t.178-1.365q.063-.63.063-1.05a1.861,1.861,0,0,0-.021-.357q-.042-.315-.451-.43t-.882-.252a2.514,2.514,0,0,1-.861-.441,1.191,1.191,0,0,1-.388-1,2.286,2.286,0,0,1,.262-1.071,1.574,1.574,0,0,1,.682-.714,2.7,2.7,0,0,1,1.081-.252,8.419,8.419,0,0,0,1.186-.126.563.563,0,0,0,.472-.4,6.061,6.061,0,0,0,.22-.693q.252-.966.546-2.089t.682-2.289q.388-1.165.861-2.278a14.932,14.932,0,0,1,1.06-2.058,23.146,23.146,0,0,1,2.026-2.394,14.653,14.653,0,0,1,2.31-1.942,11.053,11.053,0,0,1,2.6-1.3,8.954,8.954,0,0,1,2.929-.472,6.428,6.428,0,0,1,3.044.63,4.856,4.856,0,0,1,1.911,1.89,2.033,2.033,0,0,1,.231.6,3.049,3.049,0,0,1,.063.619,3.468,3.468,0,0,1-.157,1.06,2.919,2.919,0,0,1-.43.861,2.084,2.084,0,0,1-.64.577,1.523,1.523,0,0,1-.766.21,1.468,1.468,0,0,1-.882-.231,1.9,1.9,0,0,1-.514-.567,3.1,3.1,0,0,1-.315-.745,7.113,7.113,0,0,0-.252-.745,1.689,1.689,0,0,0-.367-.567.88.88,0,0,0-.651-.231,5.024,5.024,0,0,0-.955.1,3.75,3.75,0,0,0-1.018.357,16.862,16.862,0,0,0-2.373,1.5,10.078,10.078,0,0,0-2.026,2.11A15.852,15.852,0,0,0,511.6-19.82a30.558,30.558,0,0,0-1.459,4.556.815.815,0,0,0-.042.1.343.343,0,0,0-.021.084q0,.042.168.042a9.562,9.562,0,0,0,1.207-.073q.577-.073,1.144-.168t1.144-.168a9.74,9.74,0,0,1,1.228-.073q.483,0,.9.042a2.338,2.338,0,0,1,.724.178,1.157,1.157,0,0,1,.483.388,1.14,1.14,0,0,1,.178.672,3.25,3.25,0,0,1-.073.619,3.271,3.271,0,0,1-.231.714,2.472,2.472,0,0,1-.4.619,1.013,1.013,0,0,1-.6.336q-.63.126-1.3.2t-1.47.168q-.8.094-1.764.273t-2.163.514a24.663,24.663,0,0,0-.577,2.824q-.2,1.4-.346,2.782T508.011-2.4A26.56,26.56,0,0,1,507.5.4a1.987,1.987,0,0,1-.22.546,2.368,2.368,0,0,1-.378.493,1.83,1.83,0,0,1-.5.357A1.362,1.362,0,0,1,505.8,1.932Zm13.291-9.973a15.3,15.3,0,0,1,.976-2.719,17.089,17.089,0,0,1,1.732-2.908,20.545,20.545,0,0,1,2.572-2.876,21.805,21.805,0,0,1,3.475-2.625,5.276,5.276,0,0,1,.966-.409,5.139,5.139,0,0,1,1.344-.262,2.863,2.863,0,0,1,2.2-.882,4.52,4.52,0,0,1,2.761.829,6.36,6.36,0,0,1,1.858,2.257q.231.462.43.9a6.407,6.407,0,0,1,.336.934,8.832,8.832,0,0,1,.22,1.06,8.805,8.805,0,0,1,.084,1.281,11.554,11.554,0,0,1-.525,3.38,15.5,15.5,0,0,1-1.491,3.359,18.755,18.755,0,0,1-2.341,3.139,19.38,19.38,0,0,1-3.055,2.7,9.106,9.106,0,0,1-2.509,1.27,9.83,9.83,0,0,1-3.076.451,8.222,8.222,0,0,1-2.8-.43,5.229,5.229,0,0,1-1.974-1.228A5.048,5.048,0,0,1,519.1-2.729a7.48,7.48,0,0,1-.388-2.478A11.717,11.717,0,0,1,519.086-8.042Zm3.485.273a6.973,6.973,0,0,0-.178.913,6.859,6.859,0,0,0-.052.829,4.5,4.5,0,0,0,.178,1.291,2.569,2.569,0,0,0,.577,1.029,2.728,2.728,0,0,0,1,.672,3.906,3.906,0,0,0,1.459.241,5.762,5.762,0,0,0,2.971-.808,9.964,9.964,0,0,0,2.446-2.026,13.053,13.053,0,0,0,1.8-2.614,11.982,11.982,0,0,0,1.018-2.572q.189-.735.325-1.386a5.864,5.864,0,0,0,.136-1.2,2.59,2.59,0,0,0-.2-1.018q-.2-.472-.514-1.06-.189-.357-.378-.745t-.336-.766a3.318,3.318,0,0,1-.357.514,1.682,1.682,0,0,1-.567.4,5.127,5.127,0,0,1-1.029.325,14.6,14.6,0,0,1-1.7.252,5.8,5.8,0,0,0-1.407.714,10.779,10.779,0,0,0-1.4,1.134,15.641,15.641,0,0,0-1.3,1.407,15.02,15.02,0,0,0-1.113,1.543,16.492,16.492,0,0,0-.861,1.543A6.7,6.7,0,0,0,522.572-7.769Zm25.279-19.463q.063-.714.168-1.554a8.448,8.448,0,0,1,.336-1.554,3.584,3.584,0,0,1,.619-1.186,1.233,1.233,0,0,1,1-.472,2.556,2.556,0,0,1,.745.126,3.511,3.511,0,0,1,.777.346,2.3,2.3,0,0,1,.619.535,1.084,1.084,0,0,1,.252.693,1.438,1.438,0,0,1-.063.388q-.063.22-.1.43L546.948-8.44q-.315,1.26-.525,2.4t-.315,1.879v.5a12.352,12.352,0,0,1-.084,1.375,6.076,6.076,0,0,1-.315,1.386,3.012,3.012,0,0,1-.64,1.071,1.4,1.4,0,0,1-1.06.43,1.946,1.946,0,0,1-.987-.241,2.187,2.187,0,0,1-.693-.619,2.64,2.64,0,0,1-.4-.808,2.884,2.884,0,0,1-.126-.808,6.74,6.74,0,0,1,.063-.829q.063-.493.157-1.029t.2-1.071q.105-.535.21-.934Zm4.556,23.39q.315-1.218.756-2.834T554.1-10.1q.493-1.806,1-3.7t.945-3.674a1.207,1.207,0,0,1,.147-.283,1.833,1.833,0,0,1,.357-.4,2.139,2.139,0,0,1,.588-.346,2.2,2.2,0,0,1,.84-.147,3.233,3.233,0,0,1,.693.073,2.165,2.165,0,0,1,.6.22,1.181,1.181,0,0,1,.42.388,1,1,0,0,1,.157.556v.136a.43.43,0,0,1-.021.136l-.588,2.226q-.987,3.737-2.005,7.5T555.242.126q-.042.126-.126.315a1.829,1.829,0,0,1-.231.378,1.285,1.285,0,0,1-.357.315.962.962,0,0,1-.5.126,2.047,2.047,0,0,1-.966-.22,2.451,2.451,0,0,1-.714-.556,2.336,2.336,0,0,1-.441-.735,2.189,2.189,0,0,1-.147-.756V-1.2a.515.515,0,0,1,.042-.189Zm5.48-21.731a6.7,6.7,0,0,1,.378-1.071,2.8,2.8,0,0,1,.966-1.134,4.569,4.569,0,0,1,.819-.346,2.6,2.6,0,0,1,.693-.157.776.776,0,0,1,.43.147,2.538,2.538,0,0,1,.388.315,4.3,4.3,0,0,1,.4.462.746.746,0,0,1,.682.378,1.865,1.865,0,0,1,.157.8,2.713,2.713,0,0,1-.063.609q-.063.273-.1.441a1.907,1.907,0,0,1-.483.808,3.644,3.644,0,0,1-.819.63,4.5,4.5,0,0,1-.966.409,3.209,3.209,0,0,1-.882.147,1.383,1.383,0,0,1-.745-.168,2.932,2.932,0,0,1-.661-.714,1.358,1.358,0,0,1-.262-.493,1.8,1.8,0,0,1-.031-.3,2.375,2.375,0,0,1,.031-.409Q557.845-25.405,557.887-25.573Zm5.648,17.532a15.3,15.3,0,0,1,.976-2.719,17.089,17.089,0,0,1,1.732-2.908,20.545,20.545,0,0,1,2.572-2.876,21.805,21.805,0,0,1,3.475-2.625,5.276,5.276,0,0,1,.966-.409,5.139,5.139,0,0,1,1.344-.262,2.863,2.863,0,0,1,2.2-.882,4.52,4.52,0,0,1,2.761.829,6.36,6.36,0,0,1,1.858,2.257q.231.462.43.9a6.407,6.407,0,0,1,.336.934,8.832,8.832,0,0,1,.22,1.06,8.805,8.805,0,0,1,.084,1.281,11.554,11.554,0,0,1-.525,3.38,15.5,15.5,0,0,1-1.491,3.359,18.755,18.755,0,0,1-2.341,3.139,19.38,19.38,0,0,1-3.055,2.7,9.106,9.106,0,0,1-2.509,1.27A9.83,9.83,0,0,1,569.5.84a8.222,8.222,0,0,1-2.8-.43,5.229,5.229,0,0,1-1.974-1.228,5.048,5.048,0,0,1-1.176-1.911,7.48,7.48,0,0,1-.388-2.478A11.717,11.717,0,0,1,563.535-8.042Zm3.485.273a6.973,6.973,0,0,0-.178.913,6.859,6.859,0,0,0-.052.829,4.5,4.5,0,0,0,.178,1.291,2.569,2.569,0,0,0,.577,1.029,2.728,2.728,0,0,0,1,.672A3.906,3.906,0,0,0,570-2.792a5.762,5.762,0,0,0,2.971-.808,9.964,9.964,0,0,0,2.446-2.026,13.053,13.053,0,0,0,1.8-2.614,11.982,11.982,0,0,0,1.018-2.572q.189-.735.325-1.386a5.864,5.864,0,0,0,.136-1.2,2.59,2.59,0,0,0-.2-1.018q-.2-.472-.514-1.06-.189-.357-.378-.745t-.336-.766a3.318,3.318,0,0,1-.357.514,1.682,1.682,0,0,1-.567.4,5.127,5.127,0,0,1-1.029.325,14.6,14.6,0,0,1-1.7.252,5.8,5.8,0,0,0-1.407.714,10.779,10.779,0,0,0-1.4,1.134,15.641,15.641,0,0,0-1.3,1.407A15.02,15.02,0,0,0,568.4-10.7a16.492,16.492,0,0,0-.861,1.543A6.7,6.7,0,0,0,567.021-7.769Z" transform="translate(-2.985 32.498)" stroke="#0F4880" stroke-width="1"/>
</svg>
