<svg xmlns="http://www.w3.org/2000/svg" width="459.313" height="60.692" viewBox="0 0 459.313 60.692" fill="#CBBCD3">
  <path id="Path_4" class="path" data-name="Path 4" d="M12.561-21.021q.33-1.428.787-3.168t.989-3.607q.531-1.868,1.08-3.772t1.08-3.662q.531-1.758.97-3.278t.769-2.582q.7-2.38,1.318-4.779T20.764-50.9a4.379,4.379,0,0,1,1.978-2.032,6.124,6.124,0,0,1,2.71-.6,4.788,4.788,0,0,1,1.849,1.7,4.488,4.488,0,0,1,.677,2.435,8.982,8.982,0,0,1-.311,2.179Q27.356-46,26.88-44.586T25.818-41.62q-.586,1.556-1.135,3.2L22.632-32.41q-1.025,3-2.014,6.335-.256.879-.549,1.758t-.6,1.9q-.311,1.025-.677,2.289t-.732,2.911q-.439,1.941-.769,3.9t-.623,3.937Q16.37-7.4,16-5.383t-.879,4.065a3.33,3.33,0,0,1-.641,1.3,4.909,4.909,0,0,1-1.044.97,4.955,4.955,0,0,1-1.245.623,3.943,3.943,0,0,1-1.245.22A6.569,6.569,0,0,1,9.833,1.7a1.373,1.373,0,0,1-.824-.421A3.8,3.8,0,0,1,8.313.22a3.072,3.072,0,0,1-.256-1.245,3.153,3.153,0,0,1,.018-.348q.018-.165.055-.348Zm16.15,8.459a29.1,29.1,0,0,1,1.263-3.955,26.673,26.673,0,0,1,1.959-3.918,27.112,27.112,0,0,1,2.783-3.79,26.982,26.982,0,0,1,3.772-3.534,36.207,36.207,0,0,1,3.094-2.216A26.72,26.72,0,0,1,44.9-31.787a21.746,21.746,0,0,1,3.387-1.227,12.871,12.871,0,0,1,3.351-.458,10.225,10.225,0,0,1,2.142.2,9.427,9.427,0,0,1,1.776.568q.366-1.282,1.959-6.885t3.9-15.6a4.423,4.423,0,0,1,1.135-1.648,2.537,2.537,0,0,1,1.758-.659,7.868,7.868,0,0,1,1.428.128,3.132,3.132,0,0,1,1.245.513,2.74,2.74,0,0,1,.879,1.044,3.86,3.86,0,0,1,.33,1.721L60.828-24.683a29.629,29.629,0,0,0-.623,3.351q-.293,2.106-.549,4.449t-.4,4.633q-.146,2.289-.146,3.937a17.614,17.614,0,0,1-.476,4.065,12.16,12.16,0,0,1-.458,1.483,2.721,2.721,0,0,1-.641.989,2.308,2.308,0,0,1-1.007.549A5.891,5.891,0,0,1,55-1.062a4.872,4.872,0,0,1-1.648-.22,1.914,1.914,0,0,1-.879-.6,1.739,1.739,0,0,1-.348-.879q-.055-.494-.073-1.062T51.984-5a3.445,3.445,0,0,0-.311-1.154q-.439.293-1.208.769t-1.556.97q-.787.494-1.483.916t-1.025.6q-.842.476-1.9,1.007A23.445,23.445,0,0,1,42.206-.9a18.894,18.894,0,0,1-2.563.751,12.537,12.537,0,0,1-2.692.293,9.559,9.559,0,0,1-3.2-.549,7.96,7.96,0,0,1-2.783-1.685A8.167,8.167,0,0,1,29-4.962a10.469,10.469,0,0,1-.732-4.083,15.077,15.077,0,0,1,.092-1.666A14.16,14.16,0,0,1,28.711-12.561Zm6.335-.293a8.233,8.233,0,0,0-.293,2.124,10.367,10.367,0,0,0,.183,2,4.155,4.155,0,0,0,.677,1.63,3.584,3.584,0,0,0,1.318,1.117,4.711,4.711,0,0,0,2.142.421,5.425,5.425,0,0,0,1.575-.256,12.642,12.642,0,0,0,1.666-.641q.824-.385,1.538-.806t1.227-.751q1.392-.916,2.582-1.794a15.38,15.38,0,0,0,2.142-1.9,12.092,12.092,0,0,0,1.666-2.289,12.381,12.381,0,0,0,1.154-2.911q.366-1.465.641-2.673t.494-2.362q.22-1.154.4-2.362t.366-2.673a2.176,2.176,0,0,0-.494-.421,1.74,1.74,0,0,0-.934-.2,11.983,11.983,0,0,0-3.223.494,20.921,20.921,0,0,0-3.607,1.41,23.815,23.815,0,0,0-3.625,2.234,24.316,24.316,0,0,0-3.3,2.948,20.088,20.088,0,0,0-2.655,3.571A14.893,14.893,0,0,0,35.046-12.854ZM87.854-1.575A15.282,15.282,0,0,1,88.11-4.12a22.129,22.129,0,0,0,.256-3.68q-1.208.879-2.673,2.087t-3.04,2.307a22.8,22.8,0,0,1-3.131,1.849,6.738,6.738,0,0,1-2.911.751,6.558,6.558,0,0,1-2.087-.33,5.5,5.5,0,0,1-1.685-.879,10.855,10.855,0,0,1-2.8-3.076,7.229,7.229,0,0,1-.861-3.589,11.585,11.585,0,0,1,.165-1.9q.165-.989.494-2.271a31.924,31.924,0,0,1,4.779-10.712,32.745,32.745,0,0,1,8.4-8.4A10.3,10.3,0,0,1,86.9-33.71a19.748,19.748,0,0,1,3.845-.385,18.173,18.173,0,0,1,1.886.11q1.044.11,1.886.22.842-.183,1.373-.256a8.175,8.175,0,0,1,1.117-.073,4.961,4.961,0,0,1,1.831.293,3.05,3.05,0,0,1,1.172.787,3.077,3.077,0,0,1,.641,1.135,4.432,4.432,0,0,1,.2,1.337,5.586,5.586,0,0,1-.293,1.813q-.293.861-.586,1.74L95.142-7.69Q95-6.116,94.885-4.8a12.519,12.519,0,0,1-.439,2.454l-.275.824a3.089,3.089,0,0,1-.531.952,3.392,3.392,0,0,1-.916.787A2.749,2.749,0,0,1,91.3.549,8.931,8.931,0,0,1,89.484.4,2.69,2.69,0,0,1,88.44-.018a1.247,1.247,0,0,1-.476-.659A3.281,3.281,0,0,1,87.854-1.575ZM75.7-12.634a14.959,14.959,0,0,0-.311,1.465,11.147,11.147,0,0,0-.165,1.9,5.066,5.066,0,0,0,.293,1.776,1.219,1.219,0,0,0,1.282.787,6.269,6.269,0,0,0,2.875-.677,14.018,14.018,0,0,0,2.509-1.63q1.575-1.282,3.2-2.875a42.029,42.029,0,0,0,3.076-3.351,30.473,30.473,0,0,0,2.563-3.607,14.913,14.913,0,0,0,1.63-3.68,20.172,20.172,0,0,0,.494-2.454,17.573,17.573,0,0,0,.2-2.49,2.137,2.137,0,0,0-.22-.934.844.844,0,0,0-.842-.458,10.008,10.008,0,0,0-3.607.7,16.42,16.42,0,0,0-3.5,1.868,21.046,21.046,0,0,0-3.2,2.765,27.4,27.4,0,0,0-2.765,3.406,26.053,26.053,0,0,0-2.142,3.735A21.969,21.969,0,0,0,75.7-12.634Zm56.726-17.432a7.227,7.227,0,0,0-2.747.6,18.635,18.635,0,0,0-3.04,1.63q-1.575,1.025-3.2,2.325t-3.2,2.692q-.806.7-1.538,1.263a6.114,6.114,0,0,1-1.465.861,16.421,16.421,0,0,0-1.08,2.216q-.568,1.373-1.117,3t-1.044,3.333q-.494,1.7-.824,3.168-.183.769-.293,1.5t-.256,1.556q-.146.824-.348,1.776t-.494,2.124A2.5,2.5,0,0,1,111.182-.9a3.086,3.086,0,0,1-.842.641,2.712,2.712,0,0,1-.842.275,4.948,4.948,0,0,1-.623.055A3.684,3.684,0,0,1,106.6-.586a3.055,3.055,0,0,1-.879-2.563q0-.513.037-1.08a6.712,6.712,0,0,1,.22-1.263q.806-3.479,1.556-6.262t1.52-5.164q.769-2.38,1.556-4.486t1.611-4.248q.824-2.142,1.721-4.431t1.923-5.072a1.975,1.975,0,0,1,1.154-1.044,4.8,4.8,0,0,1,2-.421,3.926,3.926,0,0,1,2.289.623,2.05,2.05,0,0,1,.9,1.794,2.019,2.019,0,0,1-.073.4,3.831,3.831,0,0,1-.22.623L120.3-29.37q1.538-1.208,3.2-2.417a32.977,32.977,0,0,1,3.424-2.179,21.923,21.923,0,0,1,3.534-1.575,10.815,10.815,0,0,1,3.5-.6,7.636,7.636,0,0,1,5.493,1.886q1.978,1.886,1.978,5.841a19.916,19.916,0,0,1-.787,5.164q-.787,2.893-1.978,6.207T136.1-10.089q-1.373,3.644-2.545,7.416a12.355,12.355,0,0,1-.677,1.721,3.642,3.642,0,0,1-.824,1.117,2.838,2.838,0,0,1-1.117.6,5.73,5.73,0,0,1-1.556.183A2.843,2.843,0,0,1,127.4.421a2.284,2.284,0,0,1-.549-1.7,12.563,12.563,0,0,1,.311-2.509,33.208,33.208,0,0,1,.879-3.259q.568-1.776,1.318-3.79t1.63-4.1q.7-1.685,1.373-3.369t1.208-3.259q.531-1.575.861-3a11.786,11.786,0,0,0,.33-2.637,3.936,3.936,0,0,0-.494-2A1.946,1.946,0,0,0,132.422-30.066ZM217.31.4A2.992,2.992,0,0,1,215.955.11a2.887,2.887,0,0,1-.97-.769,3.391,3.391,0,0,1-.586-1.1A4.025,4.025,0,0,1,214.2-3a5.655,5.655,0,0,1,.293-1.52q.293-.97.751-2.179t1.007-2.527q.549-1.318,1.062-2.527t.879-2.234q.366-1.025.513-1.611.146-.659.366-1.575t.494-2q.275-1.08.549-2.271t.568-2.4q-.513.11-1.263.2t-1.593.165q-1.208.11-2.38.33t-2.4.494q-1.227.275-2.545.586t-2.82.641q-2.2.476-4.395,1.062a17.691,17.691,0,0,1-4.578.586,2.53,2.53,0,0,1-1.355-.385,4.7,4.7,0,0,0-1.392-.568,28.585,28.585,0,0,0-1.392,2.509q-.659,1.337-1.208,2.747t-.989,2.783q-.439,1.373-.769,2.582a12.042,12.042,0,0,0-.311,1.7q-.128,1.044-.238,2.124t-.22,2.069q-.11.989-.22,1.575a3.256,3.256,0,0,1-.439,1.08,4.668,4.668,0,0,1-.806.97,4.159,4.159,0,0,1-1.062.714A2.74,2.74,0,0,1,187.134.4a2.33,2.33,0,0,1-1.666-.6,4.429,4.429,0,0,1-1.025-1.5,7.581,7.581,0,0,1-.531-1.959,14.3,14.3,0,0,1-.146-1.941,20.737,20.737,0,0,1,.549-4.633,37.437,37.437,0,0,1,1.483-4.871,51.692,51.692,0,0,1,2.2-4.98q1.263-2.509,2.728-5,1.208-2.234,3-5.164t4.01-6.024q2.216-3.094,4.8-6.061a47.558,47.558,0,0,1,5.365-5.292,28.223,28.223,0,0,1,5.713-3.754,13.2,13.2,0,0,1,5.823-1.428,10.571,10.571,0,0,1,5.072,1.1,8.729,8.729,0,0,1,3.241,2.966,12.372,12.372,0,0,1,1.7,4.358,27.047,27.047,0,0,1,.494,5.273,42.516,42.516,0,0,1-.311,5.054q-.311,2.6-.769,5.09t-.989,4.8q-.531,2.307-.97,4.175l-1.282,4.98q-.073.22-.275.879t-.513,1.593q-.311.934-.7,2.014T223.37-8.4q-.385,1.044-.732,1.923t-.6,1.428l.037-.037q-.256.952-.549,1.941a6.745,6.745,0,0,1-.806,1.776A4.132,4.132,0,0,1,219.4-.092,3.943,3.943,0,0,1,217.31.4Zm1.868-45.85a8.476,8.476,0,0,0-3.278.677,17.033,17.033,0,0,0-3.2,1.776,23.484,23.484,0,0,0-3.058,2.563q-1.483,1.465-2.82,3t-2.509,3.094q-1.172,1.556-2.124,2.875-.146.22-.385.568t-.476.769q-.238.421-.458.879t-.366.824h3.772a42.963,42.963,0,0,0,4.688-.293q2.637-.293,5.219-.7t4.742-.824q2.161-.421,3.259-.641a9.745,9.745,0,0,0,.275-1.282q.128-.806.238-1.794t.165-2.106q.055-1.117.055-2.289,0-.952-.073-2.179a9.022,9.022,0,0,0-.439-2.325,4.646,4.646,0,0,0-1.117-1.849A2.847,2.847,0,0,0,219.177-45.447ZM248.035,1.465q-.183.037-.311.055a1.945,1.945,0,0,1-.275.018,2.717,2.717,0,0,1-1.355-.33,3.679,3.679,0,0,1-1.007-.824,3.683,3.683,0,0,1-.641-1.062,2.993,2.993,0,0,1-.22-1.08q-.183-.769-.513-2.2t-.751-3.223q-.421-1.794-.879-3.864t-.9-4.156q-.439-2.087-.806-4.065t-.623-3.625q-.183-1.172-.4-2.2t-.4-1.959q-.183-.934-.311-1.831a12.8,12.8,0,0,1-.128-1.813,8.529,8.529,0,0,1,.22-1.959,5.872,5.872,0,0,1,.641-1.648,3.767,3.767,0,0,1,1.025-1.154,2.221,2.221,0,0,1,1.337-.439,3.529,3.529,0,0,1,2.325.714,4.669,4.669,0,0,1,1.337,1.9,11.321,11.321,0,0,1,.677,2.765q.2,1.575.311,3.259.146,2.124.476,4.6t.732,4.944q.4,2.472.824,4.761T249.17-8.9a50.541,50.541,0,0,0,3.845-5.054q1.355-1.9,2.509-3.516t2.179-3.094q1.025-1.483,1.941-2.948t1.776-3.04q.861-1.575,1.685-3.351t1.666-3.937a10.32,10.32,0,0,1,.623-.934,4.513,4.513,0,0,1,.861-.879,4.648,4.648,0,0,1,1.135-.641,3.867,3.867,0,0,1,1.447-.256,2.651,2.651,0,0,1,2.289.842,3.553,3.553,0,0,1,.6,2.124,9.565,9.565,0,0,1-.6,3.351,15.571,15.571,0,0,1-1.923,3.5L252.026-2.49a10.376,10.376,0,0,1-1.062,1.831,6.85,6.85,0,0,1-1.08,1.172,4.708,4.708,0,0,1-1.007.659A3.873,3.873,0,0,1,248.035,1.465ZM272.9-6.7q.549-2.124,1.318-4.944t1.63-5.969q.861-3.149,1.74-6.445t1.648-6.409a2.106,2.106,0,0,1,.256-.494,3.2,3.2,0,0,1,.623-.7,3.73,3.73,0,0,1,1.025-.6,3.832,3.832,0,0,1,1.465-.256,5.64,5.64,0,0,1,1.208.128,3.775,3.775,0,0,1,1.044.385,2.059,2.059,0,0,1,.732.677,1.736,1.736,0,0,1,.275.97v.238a.748.748,0,0,1-.037.238L284.8-26q-1.721,6.519-3.5,13.074T277.844.22q-.073.22-.22.549a3.19,3.19,0,0,1-.4.659,2.242,2.242,0,0,1-.623.549,1.677,1.677,0,0,1-.879.22,3.571,3.571,0,0,1-1.685-.385,4.275,4.275,0,0,1-1.245-.97,4.077,4.077,0,0,1-.769-1.282,3.817,3.817,0,0,1-.256-1.318v-.33a.9.9,0,0,1,.073-.33Zm9.558-37.9a11.671,11.671,0,0,1,.659-1.868A4.891,4.891,0,0,1,284.8-48.45a7.972,7.972,0,0,1,1.428-.6,4.541,4.541,0,0,1,1.208-.275,1.354,1.354,0,0,1,.751.256,4.425,4.425,0,0,1,.677.549,7.5,7.5,0,0,1,.7.806,1.3,1.3,0,0,1,1.19.659,3.253,3.253,0,0,1,.275,1.392,4.732,4.732,0,0,1-.11,1.062q-.11.476-.183.769a3.326,3.326,0,0,1-.842,1.41,6.354,6.354,0,0,1-1.428,1.1,7.847,7.847,0,0,1-1.685.714,5.6,5.6,0,0,1-1.538.256,2.413,2.413,0,0,1-1.3-.293,5.115,5.115,0,0,1-1.154-1.245,2.369,2.369,0,0,1-.458-.861,3.131,3.131,0,0,1-.055-.531A4.143,4.143,0,0,1,282.33-44Q282.385-44.312,282.458-44.6Zm35.486,14.539a7.227,7.227,0,0,0-2.747.6,18.635,18.635,0,0,0-3.04,1.63q-1.575,1.025-3.2,2.325t-3.2,2.692q-.806.7-1.538,1.263a6.114,6.114,0,0,1-1.465.861,16.421,16.421,0,0,0-1.08,2.216q-.568,1.373-1.117,3t-1.044,3.333q-.494,1.7-.824,3.168-.183.769-.293,1.5t-.256,1.556q-.146.824-.348,1.776t-.494,2.124A2.5,2.5,0,0,1,296.7-.9a3.086,3.086,0,0,1-.842.641,2.712,2.712,0,0,1-.842.275,4.948,4.948,0,0,1-.623.055,3.684,3.684,0,0,1-2.271-.659,3.055,3.055,0,0,1-.879-2.563q0-.513.037-1.08a6.712,6.712,0,0,1,.22-1.263q.806-3.479,1.556-6.262t1.52-5.164q.769-2.38,1.556-4.486t1.611-4.248q.824-2.142,1.721-4.431t1.923-5.072a1.975,1.975,0,0,1,1.154-1.044,4.8,4.8,0,0,1,2-.421A3.926,3.926,0,0,1,306.83-36a2.05,2.05,0,0,1,.9,1.794,2.019,2.019,0,0,1-.073.4,3.831,3.831,0,0,1-.22.623l-1.611,3.809q1.538-1.208,3.2-2.417a32.977,32.977,0,0,1,3.424-2.179,21.923,21.923,0,0,1,3.534-1.575,10.815,10.815,0,0,1,3.5-.6,7.636,7.636,0,0,1,5.493,1.886q1.978,1.886,1.978,5.841a19.916,19.916,0,0,1-.787,5.164q-.787,2.893-1.978,6.207t-2.563,6.958q-1.373,3.644-2.545,7.416A12.355,12.355,0,0,1,318.4-.952a3.642,3.642,0,0,1-.824,1.117,2.838,2.838,0,0,1-1.117.6A5.73,5.73,0,0,1,314.9.952a2.843,2.843,0,0,1-1.978-.531,2.284,2.284,0,0,1-.549-1.7,12.563,12.563,0,0,1,.311-2.509,33.208,33.208,0,0,1,.879-3.259q.568-1.776,1.318-3.79t1.63-4.1q.7-1.685,1.373-3.369T319.1-21.57q.531-1.575.861-3a11.786,11.786,0,0,0,.33-2.637,3.936,3.936,0,0,0-.494-2A1.946,1.946,0,0,0,317.944-30.066Zm15.784,16.04a26.681,26.681,0,0,1,1.7-4.742,29.806,29.806,0,0,1,3.021-5.072,35.831,35.831,0,0,1,4.486-5.017A38.033,38.033,0,0,1,349-33.435a9.2,9.2,0,0,1,1.685-.714,8.963,8.963,0,0,1,2.344-.458,4.994,4.994,0,0,1,3.845-1.538,7.883,7.883,0,0,1,4.816,1.447,11.092,11.092,0,0,1,3.241,3.937q.4.806.751,1.575a11.175,11.175,0,0,1,.586,1.63,15.418,15.418,0,0,1,.385,1.849,15.353,15.353,0,0,1,.146,2.234,20.152,20.152,0,0,1-.916,5.9,27.041,27.041,0,0,1-2.6,5.859A32.711,32.711,0,0,1,359.2-6.244a33.806,33.806,0,0,1-5.328,4.706A15.882,15.882,0,0,1,349.493.677a17.145,17.145,0,0,1-5.365.787A14.341,14.341,0,0,1,339.24.714,9.121,9.121,0,0,1,335.8-1.428a8.8,8.8,0,0,1-2.051-3.333,13.047,13.047,0,0,1-.677-4.321A20.437,20.437,0,0,1,333.728-14.026Zm6.079.476a12.169,12.169,0,0,0-.311,1.593,11.956,11.956,0,0,0-.092,1.447,7.847,7.847,0,0,0,.311,2.252,4.481,4.481,0,0,0,1.007,1.794,4.758,4.758,0,0,0,1.74,1.172,6.813,6.813,0,0,0,2.545.421,10.05,10.05,0,0,0,5.182-1.41,17.378,17.378,0,0,0,4.266-3.534,22.766,22.766,0,0,0,3.131-4.559,20.9,20.9,0,0,0,1.776-4.486q.33-1.282.568-2.417a10.231,10.231,0,0,0,.238-2.087,4.519,4.519,0,0,0-.348-1.776q-.348-.824-.9-1.849-.33-.623-.659-1.3t-.586-1.337a5.785,5.785,0,0,1-.623.9,2.934,2.934,0,0,1-.989.7,8.941,8.941,0,0,1-1.794.568,25.471,25.471,0,0,1-2.966.439,10.115,10.115,0,0,0-2.454,1.245,18.8,18.8,0,0,0-2.435,1.978,27.281,27.281,0,0,0-2.271,2.454,26.2,26.2,0,0,0-1.941,2.692,28.766,28.766,0,0,0-1.5,2.692A11.686,11.686,0,0,0,339.807-13.55ZM390.82-1.575a15.282,15.282,0,0,1,.256-2.545,22.129,22.129,0,0,0,.256-3.68q-1.208.879-2.673,2.087t-3.04,2.307a22.8,22.8,0,0,1-3.131,1.849,6.738,6.738,0,0,1-2.911.751,6.558,6.558,0,0,1-2.087-.33,5.5,5.5,0,0,1-1.685-.879A10.855,10.855,0,0,1,373-5.09a7.229,7.229,0,0,1-.861-3.589,11.585,11.585,0,0,1,.165-1.9q.165-.989.494-2.271a31.924,31.924,0,0,1,4.779-10.712,32.745,32.745,0,0,1,8.4-8.4,10.3,10.3,0,0,1,3.882-1.74,19.748,19.748,0,0,1,3.845-.385,18.173,18.173,0,0,1,1.886.11q1.044.11,1.886.22.842-.183,1.373-.256a8.175,8.175,0,0,1,1.117-.073,4.961,4.961,0,0,1,1.831.293,3.05,3.05,0,0,1,1.172.787,3.077,3.077,0,0,1,.641,1.135,4.432,4.432,0,0,1,.2,1.337,5.586,5.586,0,0,1-.293,1.813q-.293.861-.586,1.74l-4.834,19.3q-.146,1.575-.256,2.893a12.519,12.519,0,0,1-.439,2.454l-.275.824a3.089,3.089,0,0,1-.531.952,3.392,3.392,0,0,1-.916.787,2.749,2.749,0,0,1-1.428.33A8.931,8.931,0,0,1,392.45.4a2.69,2.69,0,0,1-1.044-.421,1.247,1.247,0,0,1-.476-.659A3.281,3.281,0,0,1,390.82-1.575Zm-12.158-11.06a14.959,14.959,0,0,0-.311,1.465,11.147,11.147,0,0,0-.165,1.9,5.066,5.066,0,0,0,.293,1.776,1.219,1.219,0,0,0,1.282.787,6.269,6.269,0,0,0,2.875-.677,14.018,14.018,0,0,0,2.509-1.63q1.575-1.282,3.2-2.875a42.029,42.029,0,0,0,3.076-3.351,30.473,30.473,0,0,0,2.563-3.607,14.913,14.913,0,0,0,1.63-3.68,20.172,20.172,0,0,0,.494-2.454,17.573,17.573,0,0,0,.2-2.49,2.137,2.137,0,0,0-.22-.934.844.844,0,0,0-.842-.458,10.008,10.008,0,0,0-3.607.7,16.42,16.42,0,0,0-3.5,1.868,21.046,21.046,0,0,0-3.2,2.765,27.4,27.4,0,0,0-2.765,3.406,26.053,26.053,0,0,0-2.142,3.735A21.969,21.969,0,0,0,378.662-12.634ZM409.424-2.417q1.1-4.285,2.124-7.983t2-7.086q.97-3.387,1.886-6.573t1.758-6.482a12.184,12.184,0,0,0,.385-2.472,13.994,13.994,0,0,1,.348-2.472,1.844,1.844,0,0,1,.531-.787,4.35,4.35,0,0,1,.861-.6,4.821,4.821,0,0,1,1.007-.4,3.791,3.791,0,0,1,1.007-.146,5.2,5.2,0,0,1,1.7.238,3,3,0,0,1,1.1.641,2.147,2.147,0,0,1,.586.97,4.525,4.525,0,0,1,.165,1.263,8.222,8.222,0,0,1-.4,2.509q-.4,1.263-.989,2.765,1.721-1.355,3.534-2.563a29.917,29.917,0,0,1,3.735-2.124,23.563,23.563,0,0,1,3.937-1.465,15.8,15.8,0,0,1,4.175-.549,6.554,6.554,0,0,1,1.978.311,5.147,5.147,0,0,1,1.776.97,5.289,5.289,0,0,1,1.318,1.721,6.476,6.476,0,0,1,.6,2.6q1.575-1.062,3.259-2.142a35.518,35.518,0,0,1,3.424-1.941,22.973,22.973,0,0,1,3.479-1.392,11.574,11.574,0,0,1,3.387-.531,10.94,10.94,0,0,1,4.047.641,6.442,6.442,0,0,1,2.527,1.721,6.276,6.276,0,0,1,1.318,2.509,11.649,11.649,0,0,1,.385,3.04,20.851,20.851,0,0,1-.33,3.625q-.33,1.868-.732,3.552-1.062,4.248-2.38,8.038t-2.856,7.672q-.366.916-.769,1.941a11.8,11.8,0,0,1-.934,1.886,5.468,5.468,0,0,1-1.245,1.428,2.6,2.6,0,0,1-1.666.568,4.488,4.488,0,0,1-2.966-.732,2.677,2.677,0,0,1-.806-2.087q0-.366.037-.842A3.807,3.807,0,0,1,451.9-4.1a9.672,9.672,0,0,1,.659-1.593q.513-1.044,1.117-2.252t1.19-2.435a17.424,17.424,0,0,0,.879-2.142q.476-1.575,1.117-3.644t1.227-4.175q.586-2.106.97-3.992a16.034,16.034,0,0,0,.385-3.058,5.589,5.589,0,0,0-.11-1.1,2.562,2.562,0,0,0-.385-.952,2.047,2.047,0,0,0-.769-.659,2.736,2.736,0,0,0-1.263-.256,7.115,7.115,0,0,0-2.618.623,21.609,21.609,0,0,0-3.149,1.63,29.053,29.053,0,0,0-3.168,2.271,22.854,22.854,0,0,0-2.637,2.509,11.291,11.291,0,0,1-1.465,1.428,6.05,6.05,0,0,1-1.392.842q-.073.146-.366.97t-.7,1.978q-.4,1.154-.842,2.49t-.824,2.49q-.385,1.154-.641,1.941a7.933,7.933,0,0,0-.256.861q-.256,1.025-.439,2.106t-.33,2.069q-.146.989-.275,2.106a8.17,8.17,0,0,1-.513,2.087,3.751,3.751,0,0,1-1.172,1.593,3.493,3.493,0,0,1-2.216.623,2.529,2.529,0,0,1-1.337-.366,3.8,3.8,0,0,1-1.044-.934,4.636,4.636,0,0,1-.7-1.282,5,5,0,0,1-.293-1.447q.842-3.3,1.648-5.933t1.611-5.054q.806-2.417,1.556-4.852t1.483-5.365q.183-.7.293-1.373a7.55,7.55,0,0,0,.11-1.19,2.622,2.622,0,0,0-.366-1.447,1.407,1.407,0,0,0-1.282-.568,7.854,7.854,0,0,0-2.985.6,14.9,14.9,0,0,0-3.2,1.886,44.847,44.847,0,0,0-3.827,3.259q-2.106,1.978-4.852,4.724a14.048,14.048,0,0,0-.769,2.051q-.476,1.5-.97,3.186t-.9,3.131q-.4,1.447-.513,1.923a23.338,23.338,0,0,0-.549,2.582q-.146,1.044-.256,1.886-.073.439-.22,1.447a9.8,9.8,0,0,1-.531,2.032A5.768,5.768,0,0,1,414.954.97a2.326,2.326,0,0,1-1.831.787,4.128,4.128,0,0,1-2.765-.916,2.9,2.9,0,0,1-1.08-2.307,2.9,2.9,0,0,1,.037-.476A4.343,4.343,0,0,1,409.424-2.417Z" transform="translate(-7.557 57.995)" stroke="#0F4880" stroke-width="1"/>
</svg>
