<?xml version="1.0" encoding="utf-8"?>
<!-- Svg Vector Icons : http://www.onlinewebfonts.com/icon -->
<!DOCTYPE svg PUBLIC "-//W3C//DTD SVG 1.1//EN" "http://www.w3.org/Graphics/SVG/1.1/DTD/svg11.dtd">
<svg version="1.1" xmlns="http://www.w3.org/2000/svg" xmlns:xlink="http://www.w3.org/1999/xlink" x="0px" y="0px" viewBox="0 0 1000 1000" enable-background="new 0 0 1000 1000" xml:space="preserve">
<metadata> Svg Vector Icons : http://www.onlinewebfonts.com/icon </metadata>
<g><path d="M500,990C229.4,990,10,770.6,10,500C10,229.4,229.4,10,500,10c270.7,0,490,219.4,490,490C990,770.6,770.7,990,500,990L500,990z M500,59.4c-243,0-440.7,197.5-440.7,440.3C59.3,742.4,257,940.9,500,940.9s440.7-198.5,440.7-441.3C940.7,256.9,743,59.4,500,59.4L500,59.4z M720.6,524.7H279.7c-13.6,0-24.5-11-24.5-24.5c0-13.6,10.9-24.5,24.5-24.5h440.8c13.5,0,24.5,11,24.5,24.5C745.1,513.7,734.1,524.7,720.6,524.7L720.6,524.7z M720.6,671.6H279.7c-13.6,0-24.5-11-24.5-24.5c0-13.5,10.9-24.5,24.5-24.5h440.8c13.5,0,24.5,11,24.5,24.5C745.1,660.6,734.1,671.6,720.6,671.6L720.6,671.6z M720.6,353.2H279.7c-13.6,0-24.5-11-24.5-24.5c0-13.6,10.9-24.5,24.5-24.5h440.8c13.5,0,24.5,11,24.5,24.5C745.1,342.2,734.1,353.2,720.6,353.2L720.6,353.2z"/></g>
</svg>